<svg xmlns="http://www.w3.org/2000/svg" xmlns:xlink="http://www.w3.org/1999/xlink" viewBox="0 0 275 275"><defs><style>.cls-1{fill:#ddd;}.cls-2{opacity:0.5;}.cls-3{fill:#dfdfde;}.cls-4{fill:#919191;}.cls-5{fill:url(#linear-gradient);}.cls-6{fill:url(#linear-gradient-2);}.cls-7{fill:url(#linear-gradient-3);}.cls-8{fill:url(#New_Gradient_Swatch_9);}.cls-9{fill:url(#New_Gradient_Swatch_9-2);}.cls-10{fill:#fff;}.cls-11{fill:url(#linear-gradient-4);}.cls-12{fill:url(#New_Gradient_Swatch_11);}.cls-13{fill:url(#New_Gradient_Swatch_11-2);}.cls-14{fill:url(#New_Gradient_Swatch_11-3);}.cls-15{fill:url(#New_Gradient_Swatch_11-4);}.cls-16{fill:url(#New_Gradient_Swatch_11-5);}.cls-17{fill:url(#New_Gradient_Swatch_11-6);}.cls-18{fill:url(#New_Gradient_Swatch_11-7);}.cls-19{fill:url(#New_Gradient_Swatch_11-8);}.cls-20{fill:url(#New_Gradient_Swatch_11-9);}.cls-21{fill:url(#New_Gradient_Swatch_11-10);}.cls-22{fill:url(#New_Gradient_Swatch_11-11);}.cls-23{fill:url(#New_Gradient_Swatch_11-12);}.cls-24{fill:url(#New_Gradient_Swatch_11-13);}.cls-25{fill:url(#New_Gradient_Swatch_11-14);}.cls-26{fill:none;stroke:#f7ac48;stroke-miterlimit:10;stroke-width:0.25px;}.cls-27{fill:#f26904;}.cls-28{fill:#ff780a;}</style><linearGradient id="linear-gradient" x1="-199.84" y1="972.64" x2="-199.84" y2="967.13" gradientTransform="matrix(-1, 0, 0, 1, -62.67, -748)" gradientUnits="userSpaceOnUse"><stop offset="0" stop-color="#919191"/><stop offset="0.85" stop-color="#60605f"/></linearGradient><linearGradient id="linear-gradient-2" x1="-199.84" y1="968.64" x2="-199.84" y2="963.13" gradientTransform="matrix(-1, 0, 0, 1, -62.67, -748)" gradientUnits="userSpaceOnUse"><stop offset="0" stop-color="#ff8e23"/><stop offset="0.34" stop-color="#f26904"/></linearGradient><linearGradient id="linear-gradient-3" x1="-199.84" y1="966.75" x2="-199.84" y2="963.85" gradientTransform="matrix(-1, 0, 0, 1, -62.67, -748)" gradientUnits="userSpaceOnUse"><stop offset="0" stop-color="#ff8e23"/><stop offset="1" stop-color="#f26904"/></linearGradient><linearGradient id="New_Gradient_Swatch_9" x1="-199.84" y1="963.64" x2="-199.84" y2="958.13" gradientTransform="matrix(-1, 0, 0, 1, -62.67, -748)" gradientUnits="userSpaceOnUse"><stop offset="0" stop-color="#ff8e23"/><stop offset="0.79" stop-color="#f26904"/></linearGradient><linearGradient id="New_Gradient_Swatch_9-2" x1="-199.84" y1="958.68" x2="-199.84" y2="954.03" xlink:href="#New_Gradient_Swatch_9"/><linearGradient id="linear-gradient-4" x1="137.38" y1="222.91" x2="137.38" y2="232.25" gradientTransform="matrix(1, 0, 0, -1, 0, 276)" gradientUnits="userSpaceOnUse"><stop offset="0" stop-color="#ff8e23"/><stop offset="0.21" stop-color="#ff8c1e"/><stop offset="0.43" stop-color="#ff7d12"/><stop offset="0.97" stop-color="#f26904"/></linearGradient><linearGradient id="New_Gradient_Swatch_11" x1="137.38" y1="200.91" x2="137.38" y2="210.25" gradientTransform="matrix(1, 0, 0, -1, 0, 276)" gradientUnits="userSpaceOnUse"><stop offset="0" stop-color="#ff8e23"/><stop offset="0.28" stop-color="#ff8c1e"/><stop offset="0.61" stop-color="#ff7d12"/><stop offset="0.97" stop-color="#f26904"/></linearGradient><linearGradient id="New_Gradient_Swatch_11-2" x1="137.38" y1="211.91" x2="137.38" y2="221.25" xlink:href="#New_Gradient_Swatch_11"/><linearGradient id="New_Gradient_Swatch_11-3" x1="137.38" y1="178.99" x2="137.38" y2="188.32" xlink:href="#New_Gradient_Swatch_11"/><linearGradient id="New_Gradient_Swatch_11-4" x1="137.38" y1="190.13" x2="137.38" y2="199.47" xlink:href="#New_Gradient_Swatch_11"/><linearGradient id="New_Gradient_Swatch_11-5" x1="137.38" y1="156.99" x2="137.38" y2="166.32" xlink:href="#New_Gradient_Swatch_11"/><linearGradient id="New_Gradient_Swatch_11-6" x1="137.38" y1="167.99" x2="137.38" y2="177.32" xlink:href="#New_Gradient_Swatch_11"/><linearGradient id="New_Gradient_Swatch_11-7" x1="137.38" y1="145.99" x2="137.38" y2="155.32" xlink:href="#New_Gradient_Swatch_11"/><linearGradient id="New_Gradient_Swatch_11-8" x1="137.38" y1="123.99" x2="137.38" y2="133.32" xlink:href="#New_Gradient_Swatch_11"/><linearGradient id="New_Gradient_Swatch_11-9" x1="137.91" y1="134.94" x2="137.91" y2="144.27" xlink:href="#New_Gradient_Swatch_11"/><linearGradient id="New_Gradient_Swatch_11-10" x1="137.38" y1="102.04" x2="137.38" y2="111.37" xlink:href="#New_Gradient_Swatch_11"/><linearGradient id="New_Gradient_Swatch_11-11" x1="137.38" y1="112.99" x2="137.38" y2="122.32" xlink:href="#New_Gradient_Swatch_11"/><linearGradient id="New_Gradient_Swatch_11-12" x1="137.38" y1="80.04" x2="137.38" y2="89.37" xlink:href="#New_Gradient_Swatch_11"/><linearGradient id="New_Gradient_Swatch_11-13" x1="137.38" y1="91.01" x2="137.38" y2="100.34" xlink:href="#New_Gradient_Swatch_11"/><linearGradient id="New_Gradient_Swatch_11-14" x1="137.38" y1="69.38" x2="137.38" y2="78.71" xlink:href="#New_Gradient_Swatch_11"/></defs><title>Faux Wood_Inside_Mount</title><g id="FINAL"><rect class="cls-1" x="94.35" y="27.25" width="5.63" height="221.1"/><rect class="cls-1" x="175.35" y="27.25" width="5.63" height="221.1"/><rect class="cls-1" x="134.72" y="-8.22" width="5.63" height="208.93" transform="translate(41.28 233.78) rotate(-90)"/><rect class="cls-1" x="134.72" y="71.78" width="5.63" height="208.93" transform="translate(-38.72 313.78) rotate(-90)"/><g class="cls-2"><path class="cls-3" d="M-3.62,300.5v-8.29h-.16v-305l282-6.27v7h.15V300.5Zm247.16-50.7V25.7h-212V249.8Z"/><path class="cls-4" d="M276.75-17.5v7h.15V299h-279V286l-.16,6.21V-11.29l279-6.21M30.07,251.3H245V24.2h-215V251.3M279.75-20.57l-3.07.07-279,6.21-2.94.06V292.21h.16V302h285V-13.5h-.15v-7.07ZM33.07,27.2H242V248.3h-209V27.2Z"/></g></g><g id="Faux_Wood_Inside" data-name="Faux Wood_Inside"><rect class="cls-5" x="29.73" y="218.5" width="214.88" height="6.3"/><polygon class="cls-6" points="30.15 214.5 244.2 214.5 244.62 220.9 29.73 220.9 30.15 214.5"/><polygon class="cls-7" points="30.15 215.5 244.2 215.5 244.62 218.9 29.73 218.9 30.15 215.5"/><polygon class="cls-8" points="30.78 209.5 243.57 209.5 244.62 215.9 29.73 215.9 30.78 209.5"/><polygon class="cls-9" points="32.25 205.5 242.1 205.5 243.15 210.9 31.2 210.9 32.25 205.5"/><path class="cls-10" d="M137.38,208.6H137c-.21,0-.31-.1-.31-.3v-4c0-.2.1-.3.31-.3h.42c.21,0,.32.1.32.3v4A.33.33,0,0,1,137.38,208.6Z"/><polygon class="cls-11" points="32.56 43.8 242.2 43.8 243.25 53.1 31.52 53.1 32.56 43.8"/><polygon class="cls-12" points="32.56 65.8 242.2 65.8 243.25 75.1 31.52 75.1 32.56 65.8"/><polygon class="cls-13" points="32.56 54.8 242.2 54.8 243.25 64.1 31.52 64.1 32.56 54.8"/><polygon class="cls-14" points="32.56 87.7 242.2 87.7 243.25 97 31.52 97 32.56 87.7"/><polygon class="cls-15" points="32.56 76.5 242.2 76.5 243.25 85.9 31.52 85.9 32.56 76.5"/><polygon class="cls-16" points="32.56 109.7 242.2 109.7 243.25 119 31.52 119 32.56 109.7"/><polygon class="cls-17" points="32.56 98.7 242.2 98.7 243.25 108 31.52 108 32.56 98.7"/><polygon class="cls-18" points="32.56 120.7 242.2 120.7 243.25 130 31.52 130 32.56 120.7"/><polygon class="cls-19" points="32.56 142.7 242.2 142.7 243.25 152 31.52 152 32.56 142.7"/><polygon class="cls-20" points="33.09 131.75 242.73 131.75 243.78 141.05 32.04 141.05 33.09 131.75"/><polygon class="cls-21" points="32.56 164.6 242.2 164.6 243.25 174 31.52 174 32.56 164.6"/><polygon class="cls-22" points="32.56 153.7 242.2 153.7 243.25 163 31.52 163 32.56 153.7"/><polygon class="cls-23" points="32.56 186.6 242.2 186.6 243.25 196 31.52 196 32.56 186.6"/><polygon class="cls-24" points="32.56 175.7 242.2 175.7 243.25 185 31.52 185 32.56 175.7"/><path class="cls-10" d="M215,50.8h-.42c-.21,0-.32-.1-.32-.3v-4c0-.2.11-.3.32-.3H215c.21,0,.31.1.31.3v4A.32.32,0,0,1,215,50.8Z"/><path class="cls-10" d="M215,61.8h-.42c-.21,0-.32-.1-.32-.3v-4c0-.2.11-.3.32-.3H215c.21,0,.31.1.31.3v4A.32.32,0,0,1,215,61.8Z"/><path class="cls-10" d="M215,72.8h-.42c-.21,0-.32-.1-.32-.3v-4c0-.2.11-.3.32-.3H215c.21,0,.31.1.31.3v4A.32.32,0,0,1,215,72.8Z"/><path class="cls-10" d="M59.77,50.8h-.42c-.21,0-.31-.1-.31-.3v-4c0-.2.1-.3.31-.3h.42c.21,0,.32.1.32.3v4A.33.33,0,0,1,59.77,50.8Z"/><path class="cls-10" d="M59.77,61.8h-.42c-.21,0-.31-.1-.31-.3v-4c0-.2.1-.3.31-.3h.42c.21,0,.32.1.32.3v4A.33.33,0,0,1,59.77,61.8Z"/><path class="cls-10" d="M59.77,72.8h-.42c-.21,0-.31-.1-.31-.3v-4c0-.2.1-.3.31-.3h.42c.21,0,.32.1.32.3v4A.33.33,0,0,1,59.77,72.8Z"/><path class="cls-10" d="M215,83.6h-.42c-.21,0-.32-.1-.32-.3v-4c0-.2.11-.3.32-.3H215c.21,0,.31.1.31.3v4C215.31,83.5,215.21,83.6,215,83.6Z"/><path class="cls-10" d="M215,94.7h-.42c-.21,0-.32-.1-.32-.3v-4c0-.2.11-.3.32-.3H215c.21,0,.31.1.31.3v4A.32.32,0,0,1,215,94.7Z"/><path class="cls-10" d="M215,105.7h-.42c-.21,0-.32-.1-.32-.3v-4c0-.2.11-.3.32-.3H215c.21,0,.31.1.31.3v4A.32.32,0,0,1,215,105.7Z"/><path class="cls-10" d="M59.77,83.8h-.42c-.21,0-.31-.1-.31-.3v-4c0-.2.1-.3.31-.3h.42c.21,0,.32.1.32.3v4A.33.33,0,0,1,59.77,83.8Z"/><path class="cls-10" d="M59.77,94.7h-.42c-.21,0-.31-.1-.31-.3v-4c0-.2.1-.3.31-.3h.42c.21,0,.32.1.32.3v4A.33.33,0,0,1,59.77,94.7Z"/><path class="cls-10" d="M59.77,105.7h-.42c-.21,0-.31-.1-.31-.3v-4c0-.2.1-.3.31-.3h.42c.21,0,.32.1.32.3v4A.33.33,0,0,1,59.77,105.7Z"/><path class="cls-10" d="M215,116.7h-.42c-.21,0-.32-.1-.32-.3v-4c0-.2.11-.3.32-.3H215c.21,0,.31.1.31.3v4A.32.32,0,0,1,215,116.7Z"/><path class="cls-10" d="M215,127.7h-.42c-.21,0-.32-.1-.32-.3v-4c0-.2.11-.3.32-.3H215c.21,0,.31.1.31.3v4A.32.32,0,0,1,215,127.7Z"/><path class="cls-10" d="M215,138.7h-.42c-.21,0-.32-.1-.32-.3v-4c0-.2.11-.3.32-.3H215c.21,0,.31.1.31.3v4A.32.32,0,0,1,215,138.7Z"/><path class="cls-10" d="M59.77,116.7h-.42c-.21,0-.31-.1-.31-.3v-4c0-.2.1-.3.31-.3h.42c.21,0,.32.1.32.3v4A.33.33,0,0,1,59.77,116.7Z"/><path class="cls-10" d="M59.77,127.7h-.42c-.21,0-.31-.1-.31-.3v-4c0-.2.1-.3.31-.3h.42c.21,0,.32.1.32.3v4A.33.33,0,0,1,59.77,127.7Z"/><path class="cls-10" d="M59.77,138.7h-.42c-.21,0-.31-.1-.31-.3v-4c0-.2.1-.3.31-.3h.42c.21,0,.32.1.32.3v4A.33.33,0,0,1,59.77,138.7Z"/><path class="cls-10" d="M214.47,138.7h-.42c-.21,0-.31-.1-.31-.3v-4c0-.2.1-.3.31-.3h.42c.21,0,.32.1.32.3v4C214.79,138.6,214.68,138.7,214.47,138.7Z"/><path class="cls-10" d="M215,149.7h-.42c-.21,0-.32-.1-.32-.3v-4c0-.2.11-.3.32-.3H215c.21,0,.31.1.31.3v4A.32.32,0,0,1,215,149.7Z"/><path class="cls-10" d="M215,160.7h-.42c-.21,0-.32-.1-.32-.3v-4c0-.2.11-.3.32-.3H215c.21,0,.31.1.31.3v4A.32.32,0,0,1,215,160.7Z"/><path class="cls-10" d="M59.77,138.7h-.42c-.21,0-.31-.1-.31-.3v-4c0-.2.1-.3.31-.3h.42c.21,0,.32.1.32.3v4C60.09,138.6,60,138.7,59.77,138.7Z"/><path class="cls-10" d="M59.77,149.7h-.42c-.21,0-.31-.1-.31-.3v-4c0-.2.1-.3.31-.3h.42c.21,0,.32.1.32.3v4A.33.33,0,0,1,59.77,149.7Z"/><path class="cls-10" d="M59.77,160.6h-.42c-.21,0-.31-.1-.31-.3v-4c0-.2.1-.3.31-.3h.42c.21,0,.32.1.32.3v4C60.09,160.5,60,160.6,59.77,160.6Z"/><path class="cls-10" d="M215,171.6h-.42c-.21,0-.32-.1-.32-.3v-4c0-.2.11-.3.32-.3H215c.21,0,.31.1.31.3v4C215.31,171.5,215.21,171.6,215,171.6Z"/><path class="cls-10" d="M59.77,171.6h-.42c-.21,0-.31-.1-.31-.3v-4c0-.2.1-.3.31-.3h.42c.21,0,.32.1.32.3v4C60.09,171.5,60,171.6,59.77,171.6Z"/><path class="cls-10" d="M214.47,182.6h-.42c-.21,0-.31-.1-.31-.3v-4c0-.2.1-.3.31-.3h.42c.21,0,.32.1.32.3v4C214.79,182.5,214.68,182.6,214.47,182.6Z"/><path class="cls-10" d="M215,193.6h-.42c-.21,0-.32-.1-.32-.3v-4c0-.2.11-.3.32-.3H215c.21,0,.31.1.31.3v4C215.31,193.5,215.21,193.6,215,193.6Z"/><path class="cls-10" d="M59.77,182.6h-.42c-.21,0-.31-.1-.31-.3v-4c0-.2.1-.3.31-.3h.42c.21,0,.32.1.32.3v4C60.09,182.5,60,182.6,59.77,182.6Z"/><path class="cls-10" d="M59.77,193.6h-.42c-.21,0-.31-.1-.31-.3v-4c0-.2.1-.3.31-.3h.42c.21,0,.32.1.32.3v4C60.09,193.5,60,193.6,59.77,193.6Z"/><path class="cls-10" d="M215.52,208.5l-.42.1c-.21,0-.31-.1-.42-.3l-.63-4c0-.2.11-.3.32-.4l.42-.1c.21,0,.31.1.42.3l.63,4C215.73,208.3,215.63,208.5,215.52,208.5Z"/><path class="cls-10" d="M59.25,208.6l-.42-.1c-.21,0-.32-.2-.32-.4l.63-4c0-.2.21-.3.42-.3l.42.1c.21,0,.32.2.32.4l-.63,4C59.56,208.5,59.46,208.6,59.25,208.6Z"/><polygon class="cls-25" points="32.56 197.3 242.2 197.3 243.25 206.6 31.52 206.6 32.56 197.3"/><path class="cls-10" d="M215,204.3h-.42c-.21,0-.32-.1-.32-.3v-4c0-.2.11-.3.32-.3H215c.21,0,.31.1.31.3v4A.32.32,0,0,1,215,204.3Z"/><path class="cls-10" d="M59.77,204.3h-.42c-.21,0-.31-.1-.31-.3v-4c0-.2.1-.3.31-.3h.42c.21,0,.32.1.32.3v4A.33.33,0,0,1,59.77,204.3Z"/><path class="cls-10" d="M137.49,50.8h-.42c-.21,0-.32-.1-.32-.3v-4c0-.2.11-.3.32-.3h.42c.21,0,.31.1.31.3v4A.32.32,0,0,1,137.49,50.8Z"/><path class="cls-10" d="M137.49,61.8h-.42c-.21,0-.32-.1-.32-.3v-4c0-.2.11-.3.32-.3h.42c.21,0,.31.1.31.3v4A.32.32,0,0,1,137.49,61.8Z"/><path class="cls-10" d="M137.49,72.8h-.42c-.21,0-.32-.1-.32-.3v-4c0-.2.11-.3.32-.3h.42c.21,0,.31.1.31.3v4A.32.32,0,0,1,137.49,72.8Z"/><path class="cls-10" d="M137.49,83.8h-.42c-.21,0-.32-.1-.32-.3v-4c0-.2.11-.3.32-.3h.42c.21,0,.31.1.31.3v4A.32.32,0,0,1,137.49,83.8Z"/><path class="cls-10" d="M137.49,94.7h-.42c-.21,0-.32-.1-.32-.3v-4c0-.2.11-.3.32-.3h.42c.21,0,.31.1.31.3v4A.32.32,0,0,1,137.49,94.7Z"/><path class="cls-10" d="M137.49,105.7h-.42c-.21,0-.32-.1-.32-.3v-4c0-.2.11-.3.32-.3h.42c.21,0,.31.1.31.3v4A.32.32,0,0,1,137.49,105.7Z"/><path class="cls-10" d="M137.49,116.7h-.42c-.21,0-.32-.1-.32-.3v-4c0-.2.11-.3.32-.3h.42c.21,0,.31.1.31.3v4A.32.32,0,0,1,137.49,116.7Z"/><path class="cls-10" d="M137.49,127.7h-.42c-.21,0-.32-.1-.32-.3v-4c0-.2.11-.3.32-.3h.42c.21,0,.31.1.31.3v4A.32.32,0,0,1,137.49,127.7Z"/><path class="cls-10" d="M137.49,138.7h-.42c-.21,0-.32-.1-.32-.3v-4c0-.2.11-.3.32-.3h.42c.21,0,.31.1.31.3v4A.32.32,0,0,1,137.49,138.7Z"/><path class="cls-10" d="M137.49,138.7h-.42c-.21,0-.32-.1-.32-.3v-4c0-.2.11-.3.32-.3h.42c.21,0,.31.1.31.3v4C137.8,138.6,137.7,138.7,137.49,138.7Z"/><path class="cls-10" d="M137.49,149.7h-.42c-.21,0-.32-.1-.32-.3v-4c0-.2.11-.3.32-.3h.42c.21,0,.31.1.31.3v4A.32.32,0,0,1,137.49,149.7Z"/><path class="cls-10" d="M137.49,160.6h-.42c-.21,0-.32-.1-.32-.3v-4c0-.2.11-.3.32-.3h.42c.21,0,.31.1.31.3v4C137.8,160.5,137.7,160.6,137.49,160.6Z"/><path class="cls-10" d="M137.49,171.6h-.42c-.21,0-.32-.1-.32-.3v-4c0-.2.11-.3.32-.3h.42c.21,0,.31.1.31.3v4C137.8,171.5,137.7,171.6,137.49,171.6Z"/><path class="cls-10" d="M137.49,182.6h-.42c-.21,0-.32-.1-.32-.3v-4c0-.2.11-.3.32-.3h.42c.21,0,.31.1.31.3v4C137.8,182.5,137.7,182.6,137.49,182.6Z"/><path class="cls-10" d="M137.49,193.6h-.42c-.21,0-.32-.1-.32-.3v-4c0-.2.11-.3.32-.3h.42c.21,0,.31.1.31.3v4C137.8,193.5,137.7,193.6,137.49,193.6Z"/><path class="cls-10" d="M137.49,204.3h-.42c-.21,0-.32-.1-.32-.3v-4c0-.2.11-.3.32-.3h.42c.21,0,.31.1.31.3v4A.32.32,0,0,1,137.49,204.3Z"/><path class="cls-26" d="M59.56,43.8c0,10.8-.31,22,0,32.8s-.1,20.9-.21,31.5c-.1,11,.32,10.9.42,21.9,0,9.4.11,19-.1,28.4-.11,3.5-.21,6.9-.21,10.4v38.5c0,2.1.52.3.1,2.3s-1.89,2.8-2.31,4.8"/><path class="cls-26" d="M214.47,43.8c0,10.8.32,22,0,32.8s.11,20.9.21,31.5c.11,11-.31,10.9-.42,21.9,0,9.4-.1,19,.11,28.4.1,3.5.21,6.9.21,10.4v38.5c0,2.1-.53.3-.11,2.3s1.89,2.8,2.31,4.8"/><path class="cls-26" d="M137.91,43.8c0,10.8-.63,22-.74,32.8-.1,10.6,0,20.8.21,31.5.11,11-.31,11-.42,22,0,9.4.32,18.9.63,28.3.11,3.5-.63,6.9-.63,10.4,0,12.8.63,25.6,0,38.5-.1,2.1-.1.3.42,2.3s-.42,2.6-.42,4.5"/><rect class="cls-27" x="29.73" y="220.5" width="214.88" height="8.6"/><path class="cls-26" d="M59.77,215.6a1.84,1.84,0,0,0-1.89-1.3,4.16,4.16,0,0,0-2.51.8c-.11.1-.21.2-.21.3s.21.3.42.3a7,7,0,0,0,3.77.2c.42-.1.74-.4,1.16-.5a5.26,5.26,0,0,1,2.51-.2,2.19,2.19,0,0,1,1.16.2c.31.1.63.5.52.8a9.2,9.2,0,0,1-4.72.7,23.65,23.65,0,0,1-4.61-1.1,9.46,9.46,0,0,0-2.42-.5c-.84,0-1.57,1.7-1.25,1.7,3.14.4,6.5.7,9.54-.2a5.77,5.77,0,0,1,1.26-.3,1.94,1.94,0,0,1,1.15.3.61.61,0,0,1-.21,1,2.75,2.75,0,0,1-1.26.5,7.59,7.59,0,0,1-3.35-.1c-1.47-.3-2.83-1.1-4.3-.8-.74.1-1.37.7-1.05,1.2.1.2.31.3.63.4a3.93,3.93,0,0,0,2.83-.1,5.11,5.11,0,0,1,1.68-.8,2.55,2.55,0,0,1,2.1.4,1,1,0,0,1,.41.7c0,.4-.52.8-1.15.9a4.78,4.78,0,0,1-1.68-.1c-.73-.1-1.47-.3-2.2-.4-.52-.1-1.36-.1-1.47.3s.42.7.95.8a4,4,0,0,0,1.88.2c.63-.1,1.26-.5,1.26-.9"/><path class="cls-26" d="M214.26,215.6a1.86,1.86,0,0,1,1.89-1.3,4.19,4.19,0,0,1,2.52.8c.1.1.21.2.21.3s-.21.3-.42.3a7,7,0,0,1-3.78.2c-.42-.1-.73-.4-1.15-.5a5.31,5.31,0,0,0-2.52-.2,1.55,1.55,0,0,0-1.47.6c-1,1.4,10-.2,10.28-.3,1.26-.3,2.73-.4,2,1s-4.51,1.1-5.77.9c-1.88-.3-3.88-.8-5.66-.3a6.1,6.1,0,0,0,3.46,1.3c1.89-.1,3.57-1.4,5.46-1,.73.1,1.36.7,1,1.2a1,1,0,0,1-.63.4,4,4,0,0,1-2.84-.1,5.06,5.06,0,0,0-1.67-.8,2.53,2.53,0,0,0-2.1.4,1,1,0,0,0-.42.7c0,.4.52.8,1.15.9a4.75,4.75,0,0,0,1.68-.1c.73-.1,1.47-.3,2.2-.4.53-.1,1.37-.1,1.47.3s-.42.7-.94.8a4.09,4.09,0,0,1-1.89.2c-.63-.1-1.26-.5-1.26-.9"/><path class="cls-26" d="M136.86,213.9c-.11,1.8-2-.2-3.15-.1a.67.67,0,0,0-.42.1.65.65,0,0,0-.1,1,1.25,1.25,0,0,0,1.05.4c1.78.1,3.56-1.1,5.45-.7.53.1,1.05.4,1.05.9s-.73.8-1.36.9a7.6,7.6,0,0,1-2.1.1,16.77,16.77,0,0,1-3.15-1.1c-1-.3-2.51-.2-3,.7a1.76,1.76,0,0,0,.42,2.2,3.25,3.25,0,0,0,2.31.8,5.14,5.14,0,0,0,2.41-.7,14.58,14.58,0,0,1,2.94-1.1,4.88,4.88,0,0,1,2.41.3c.42.2.84.4.84.9a.87.87,0,0,1-.74.8,2.16,2.16,0,0,1-1.15-.1c-1.68-.5-3.36-1.2-4.93-1.8a11.93,11.93,0,0,0-2.73-.6,6.23,6.23,0,0,0-1.36-.1c-.42,0-.94-.1-1.15.3a2,2,0,0,0,.31,2.4,3.33,3.33,0,0,0,2.52,1,10,10,0,0,0,2.94-.9,10.06,10.06,0,0,1,2.93-1,6,6,0,0,1,1.89.1,2.72,2.72,0,0,1,1.47.6,1.06,1.06,0,0,1,.31,1.4c-.31.5-1.15.5-1.78.4a16.29,16.29,0,0,1-2.94-.8,8,8,0,0,0-2.2-.7,2,2,0,0,0-2,.8"/><polygon class="cls-28" points="43.46 191.8 43.46 45.01 48.62 45.01 48.62 191.8 46.09 192.9 43.46 191.8"/><path class="cls-10" d="M47.88,45.61V191.54l-1.79.85-2-.85V45.69h3.79m1.37-1.19H42.72V192.05l.74.34,2,.85.63.26.64-.26,1.79-.85.63-.34V44.5Z"/><rect class="cls-27" x="29.73" y="24.2" width="214.88" height="22.7"/></g></svg>