<svg xmlns="http://www.w3.org/2000/svg" xmlns:xlink="http://www.w3.org/1999/xlink" viewBox="0 0 275 275"><defs><style>.cls-1{fill:#ddd;}.cls-2{opacity:0.5;}.cls-3{fill:#dfdfde;}.cls-4{fill:#919191;}.cls-5{fill:url(#linear-gradient);}.cls-6{fill:url(#linear-gradient-2);}.cls-7{fill:url(#linear-gradient-3);}.cls-8{fill:url(#New_Gradient_Swatch_9);}.cls-9{fill:url(#New_Gradient_Swatch_9-2);}.cls-10{fill:url(#New_Gradient_Swatch_9-3);}.cls-11{fill:#fff;}.cls-12{fill:url(#linear-gradient-4);}.cls-13{fill:url(#New_Gradient_Swatch_11);}.cls-14{fill:url(#New_Gradient_Swatch_11-2);}.cls-15{fill:url(#New_Gradient_Swatch_11-3);}.cls-16{fill:url(#New_Gradient_Swatch_11-4);}.cls-17{fill:url(#New_Gradient_Swatch_11-5);}.cls-18{fill:url(#New_Gradient_Swatch_11-6);}.cls-19{fill:url(#New_Gradient_Swatch_11-7);}.cls-20{fill:url(#New_Gradient_Swatch_11-8);}.cls-21{fill:url(#New_Gradient_Swatch_11-9);}.cls-22{fill:url(#New_Gradient_Swatch_11-10);}.cls-23{fill:url(#New_Gradient_Swatch_11-11);}.cls-24{fill:url(#New_Gradient_Swatch_11-12);}.cls-25{fill:url(#New_Gradient_Swatch_11-13);}.cls-26{fill:url(#New_Gradient_Swatch_11-14);}.cls-27{fill:url(#New_Gradient_Swatch_11-15);}.cls-28{fill:none;stroke:#f7ac48;stroke-miterlimit:10;stroke-width:0.25px;}.cls-29{fill:#f26904;}.cls-30{fill:#ff780a;}</style><linearGradient id="linear-gradient" x1="-199.84" y1="973.07" x2="-199.84" y2="967.56" gradientTransform="matrix(-1, 0, 0, 1, -62.67, -748)" gradientUnits="userSpaceOnUse"><stop offset="0" stop-color="#919191"/><stop offset="0.85" stop-color="#60605f"/></linearGradient><linearGradient id="linear-gradient-2" x1="-199.84" y1="969.07" x2="-199.84" y2="963.56" gradientTransform="matrix(-1, 0, 0, 1, -62.67, -748)" gradientUnits="userSpaceOnUse"><stop offset="0" stop-color="#ff8e23"/><stop offset="0.34" stop-color="#f26904"/></linearGradient><linearGradient id="linear-gradient-3" x1="-199.84" y1="967.18" x2="-199.84" y2="964.28" gradientTransform="matrix(-1, 0, 0, 1, -62.67, -748)" gradientUnits="userSpaceOnUse"><stop offset="0" stop-color="#ff8e23"/><stop offset="1" stop-color="#f26904"/></linearGradient><linearGradient id="New_Gradient_Swatch_9" x1="-199.84" y1="964.07" x2="-199.84" y2="958.56" gradientTransform="matrix(-1, 0, 0, 1, -62.67, -748)" gradientUnits="userSpaceOnUse"><stop offset="0" stop-color="#ff8e23"/><stop offset="0.79" stop-color="#f26904"/></linearGradient><linearGradient id="New_Gradient_Swatch_9-2" x1="-199.79" y1="960.07" x2="-199.79" y2="954.56" xlink:href="#New_Gradient_Swatch_9"/><linearGradient id="New_Gradient_Swatch_9-3" x1="-199.84" y1="955.07" x2="-199.84" y2="949.56" xlink:href="#New_Gradient_Swatch_9"/><linearGradient id="linear-gradient-4" x1="137.38" y1="238.48" x2="137.38" y2="247.81" gradientTransform="matrix(1, 0, 0, -1, 0, 276)" gradientUnits="userSpaceOnUse"><stop offset="0" stop-color="#ff8e23"/><stop offset="0.21" stop-color="#ff8c1e"/><stop offset="0.43" stop-color="#ff7d12"/><stop offset="0.97" stop-color="#f26904"/></linearGradient><linearGradient id="New_Gradient_Swatch_11" x1="137.38" y1="216.48" x2="137.38" y2="225.81" gradientTransform="matrix(1, 0, 0, -1, 0, 276)" gradientUnits="userSpaceOnUse"><stop offset="0" stop-color="#ff8e23"/><stop offset="0.28" stop-color="#ff8c1e"/><stop offset="0.61" stop-color="#ff7d12"/><stop offset="0.97" stop-color="#f26904"/></linearGradient><linearGradient id="New_Gradient_Swatch_11-2" x1="137.38" y1="227.48" x2="137.38" y2="236.81" xlink:href="#New_Gradient_Swatch_11"/><linearGradient id="New_Gradient_Swatch_11-3" x1="137.38" y1="194.55" x2="137.38" y2="203.89" xlink:href="#New_Gradient_Swatch_11"/><linearGradient id="New_Gradient_Swatch_11-4" x1="137.38" y1="205.7" x2="137.38" y2="215.04" xlink:href="#New_Gradient_Swatch_11"/><linearGradient id="New_Gradient_Swatch_11-5" x1="137.38" y1="172.55" x2="137.38" y2="181.89" xlink:href="#New_Gradient_Swatch_11"/><linearGradient id="New_Gradient_Swatch_11-6" x1="137.38" y1="183.55" x2="137.38" y2="192.89" xlink:href="#New_Gradient_Swatch_11"/><linearGradient id="New_Gradient_Swatch_11-7" x1="137.38" y1="150.55" x2="137.38" y2="159.89" xlink:href="#New_Gradient_Swatch_11"/><linearGradient id="New_Gradient_Swatch_11-8" x1="137.38" y1="161.55" x2="137.38" y2="170.89" xlink:href="#New_Gradient_Swatch_11"/><linearGradient id="New_Gradient_Swatch_11-9" x1="137.38" y1="128.55" x2="137.38" y2="137.89" xlink:href="#New_Gradient_Swatch_11"/><linearGradient id="New_Gradient_Swatch_11-10" x1="137.91" y1="139.5" x2="137.91" y2="148.84" xlink:href="#New_Gradient_Swatch_11"/><linearGradient id="New_Gradient_Swatch_11-11" x1="137.38" y1="106.6" x2="137.38" y2="115.94" xlink:href="#New_Gradient_Swatch_11"/><linearGradient id="New_Gradient_Swatch_11-12" x1="137.38" y1="117.55" x2="137.38" y2="126.89" xlink:href="#New_Gradient_Swatch_11"/><linearGradient id="New_Gradient_Swatch_11-13" x1="137.38" y1="84.6" x2="137.38" y2="93.94" xlink:href="#New_Gradient_Swatch_11"/><linearGradient id="New_Gradient_Swatch_11-14" x1="137.38" y1="95.58" x2="137.38" y2="104.91" xlink:href="#New_Gradient_Swatch_11"/><linearGradient id="New_Gradient_Swatch_11-15" x1="137.38" y1="73.95" x2="137.38" y2="83.28" xlink:href="#New_Gradient_Swatch_11"/></defs><title>Faux Wood_Outside_Mount</title><g id="FINAL"><rect class="cls-1" x="94.35" y="27.25" width="5.63" height="221.1"/><rect class="cls-1" x="175.35" y="27.25" width="5.63" height="221.1"/><rect class="cls-1" x="134.72" y="-8.22" width="5.63" height="208.93" transform="translate(41.28 233.78) rotate(-90)"/><rect class="cls-1" x="134.72" y="71.78" width="5.63" height="208.93" transform="translate(-38.72 313.78) rotate(-90)"/><g class="cls-2"><path class="cls-3" d="M-3.62,300.5v-8.29h-.16v-305l282-6.27v7h.15V300.5Zm247.16-50.7V25.7h-212V249.8Z"/><path class="cls-4" d="M276.75-17.5v7h.15V299h-279V286l-.16,6.21V-11.29l279-6.21M30.07,251.3H245V24.2h-215V251.3M279.75-20.57l-3.07.07-279,6.21-2.94.06V292.21h.16V302h285V-13.5h-.15v-7.07ZM33.07,27.2H242V248.3h-209V27.2Z"/></g></g><g id="Faux_Wood_Outside" data-name="Faux Wood_Outside"><rect class="cls-5" x="9.67" y="218.93" width="255" height="6.3"/><polygon class="cls-6" points="10.09 214.93 264.25 214.93 264.67 221.33 9.67 221.33 10.09 214.93"/><polygon class="cls-7" points="10.09 215.93 264.25 215.93 264.67 219.33 9.67 219.33 10.09 215.93"/><polygon class="cls-8" points="10.72 209.93 263.63 209.93 264.67 216.33 9.67 216.33 10.72 209.93"/><polygon class="cls-9" points="11.35 205.93 263 205.93 263.94 212.33 10.3 212.33 11.35 205.93"/><polygon class="cls-10" points="12.19 200.93 262.15 200.93 263.2 207.33 11.14 207.33 12.19 200.93"/><path class="cls-11" d="M137.38,204H137c-.21,0-.31-.1-.31-.3v-4c0-.2.1-.3.31-.3h.42c.21,0,.32.1.32.3v4A.33.33,0,0,1,137.38,204Z"/><polygon class="cls-12" points="12.51 28.23 262.26 28.23 263.31 37.53 11.46 37.53 12.51 28.23"/><polygon class="cls-13" points="12.51 50.23 262.26 50.23 263.31 59.53 11.46 59.53 12.51 50.23"/><polygon class="cls-14" points="12.51 39.23 262.26 39.23 263.31 48.53 11.46 48.53 12.51 39.23"/><polygon class="cls-15" points="12.51 72.13 262.26 72.13 263.31 81.43 11.46 81.43 12.51 72.13"/><polygon class="cls-16" points="12.51 60.93 262.26 60.93 263.31 70.33 11.46 70.33 12.51 60.93"/><polygon class="cls-17" points="12.51 94.13 262.26 94.13 263.31 103.43 11.46 103.43 12.51 94.13"/><polygon class="cls-18" points="12.51 83.13 262.26 83.13 263.31 92.43 11.46 92.43 12.51 83.13"/><polygon class="cls-19" points="12.51 116.13 262.26 116.13 263.31 125.43 11.46 125.43 12.51 116.13"/><polygon class="cls-20" points="12.51 105.13 262.26 105.13 263.31 114.43 11.46 114.43 12.51 105.13"/><polygon class="cls-21" points="12.51 138.13 262.26 138.13 263.31 147.43 11.46 147.43 12.51 138.13"/><polygon class="cls-22" points="13.03 127.18 262.79 127.18 263.83 136.48 11.98 136.48 13.03 127.18"/><polygon class="cls-23" points="12.51 160.03 262.26 160.03 263.31 169.43 11.46 169.43 12.51 160.03"/><polygon class="cls-24" points="12.51 149.13 262.26 149.13 263.31 158.43 11.46 158.43 12.51 149.13"/><polygon class="cls-25" points="12.51 182.03 262.26 182.03 263.31 191.43 11.46 191.43 12.51 182.03"/><polygon class="cls-26" points="12.51 171.13 262.26 171.13 263.31 180.43 11.46 180.43 12.51 171.13"/><path class="cls-11" d="M215,35.23h-.42c-.21,0-.32-.1-.32-.3v-4c0-.2.11-.3.32-.3H215c.21,0,.31.1.31.3v4A.32.32,0,0,1,215,35.23Z"/><path class="cls-11" d="M215,46.23h-.42c-.21,0-.32-.1-.32-.3v-4c0-.2.11-.3.32-.3H215c.21,0,.31.1.31.3v4A.32.32,0,0,1,215,46.23Z"/><path class="cls-11" d="M215,57.23h-.42c-.21,0-.32-.1-.32-.3v-4c0-.2.11-.3.32-.3H215c.21,0,.31.1.31.3v4A.32.32,0,0,1,215,57.23Z"/><path class="cls-11" d="M59.73,35.23h-.42c-.21,0-.32-.1-.32-.3v-4c0-.2.11-.3.32-.3h.42c.21,0,.31.1.31.3v4A.32.32,0,0,1,59.73,35.23Z"/><path class="cls-11" d="M59.73,46.23h-.42c-.21,0-.32-.1-.32-.3v-4c0-.2.11-.3.32-.3h.42c.21,0,.31.1.31.3v4A.32.32,0,0,1,59.73,46.23Z"/><path class="cls-11" d="M59.73,57.23h-.42c-.21,0-.32-.1-.32-.3v-4c0-.2.11-.3.32-.3h.42c.21,0,.31.1.31.3v4A.32.32,0,0,1,59.73,57.23Z"/><path class="cls-11" d="M215,68h-.42c-.21,0-.32-.1-.32-.3v-4c0-.2.11-.3.32-.3H215c.21,0,.31.1.31.3v4C215.35,67.93,215.25,68,215,68Z"/><path class="cls-11" d="M215,79.13h-.42c-.21,0-.32-.1-.32-.3v-4c0-.2.11-.3.32-.3H215c.21,0,.31.1.31.3v4A.32.32,0,0,1,215,79.13Z"/><path class="cls-11" d="M215,90.13h-.42c-.21,0-.32-.1-.32-.3v-4c0-.2.11-.3.32-.3H215c.21,0,.31.1.31.3v4A.32.32,0,0,1,215,90.13Z"/><path class="cls-11" d="M59.73,68.23h-.42c-.21,0-.32-.1-.32-.3v-4c0-.2.11-.3.32-.3h.42c.21,0,.31.1.31.3v4A.32.32,0,0,1,59.73,68.23Z"/><path class="cls-11" d="M59.73,79.13h-.42c-.21,0-.32-.1-.32-.3v-4c0-.2.11-.3.32-.3h.42c.21,0,.31.1.31.3v4A.32.32,0,0,1,59.73,79.13Z"/><path class="cls-11" d="M59.73,90.13h-.42c-.21,0-.32-.1-.32-.3v-4c0-.2.11-.3.32-.3h.42c.21,0,.31.1.31.3v4A.32.32,0,0,1,59.73,90.13Z"/><path class="cls-11" d="M215,101.13h-.42c-.21,0-.32-.1-.32-.3v-4c0-.2.11-.3.32-.3H215c.21,0,.31.1.31.3v4A.32.32,0,0,1,215,101.13Z"/><path class="cls-11" d="M215,112.13h-.42c-.21,0-.32-.1-.32-.3v-4c0-.2.11-.3.32-.3H215c.21,0,.31.1.31.3v4A.32.32,0,0,1,215,112.13Z"/><path class="cls-11" d="M215,123.13h-.42c-.21,0-.32-.1-.32-.3v-4c0-.2.11-.3.32-.3H215c.21,0,.31.1.31.3v4A.32.32,0,0,1,215,123.13Z"/><path class="cls-11" d="M59.73,101.13h-.42c-.21,0-.32-.1-.32-.3v-4c0-.2.11-.3.32-.3h.42c.21,0,.31.1.31.3v4A.32.32,0,0,1,59.73,101.13Z"/><path class="cls-11" d="M59.73,112.13h-.42c-.21,0-.32-.1-.32-.3v-4c0-.2.11-.3.32-.3h.42c.21,0,.31.1.31.3v4A.32.32,0,0,1,59.73,112.13Z"/><path class="cls-11" d="M59.73,123.13h-.42c-.21,0-.32-.1-.32-.3v-4c0-.2.11-.3.32-.3h.42c.21,0,.31.1.31.3v4A.32.32,0,0,1,59.73,123.13Z"/><path class="cls-11" d="M214.51,134.13h-.42c-.21,0-.31-.1-.31-.3v-4c0-.2.1-.3.31-.3h.42c.21,0,.32.1.32.3v4C214.83,134,214.72,134.13,214.51,134.13Z"/><path class="cls-11" d="M215,145.13h-.42c-.21,0-.32-.1-.32-.3v-4c0-.2.11-.3.32-.3H215c.21,0,.31.1.31.3v4A.32.32,0,0,1,215,145.13Z"/><path class="cls-11" d="M215,156.13h-.42c-.21,0-.32-.1-.32-.3v-4c0-.2.11-.3.32-.3H215c.21,0,.31.1.31.3v4A.32.32,0,0,1,215,156.13Z"/><path class="cls-11" d="M59.73,134.13h-.42c-.21,0-.32-.1-.32-.3v-4c0-.2.11-.3.32-.3h.42c.21,0,.31.1.31.3v4C60,134,59.94,134.13,59.73,134.13Z"/><path class="cls-11" d="M59.73,145.13h-.42c-.21,0-.32-.1-.32-.3v-4c0-.2.11-.3.32-.3h.42c.21,0,.31.1.31.3v4A.32.32,0,0,1,59.73,145.13Z"/><path class="cls-11" d="M59.73,156h-.42c-.21,0-.32-.1-.32-.3v-4c0-.2.11-.3.32-.3h.42c.21,0,.31.1.31.3v4C60,155.93,59.94,156,59.73,156Z"/><path class="cls-11" d="M215,167h-.42c-.21,0-.32-.1-.32-.3v-4c0-.2.11-.3.32-.3H215c.21,0,.31.1.31.3v4C215.35,166.93,215.25,167,215,167Z"/><path class="cls-11" d="M59.73,167h-.42c-.21,0-.32-.1-.32-.3v-4c0-.2.11-.3.32-.3h.42c.21,0,.31.1.31.3v4C60,166.93,59.94,167,59.73,167Z"/><path class="cls-11" d="M214.51,178h-.42c-.21,0-.31-.1-.31-.3v-4c0-.2.1-.3.31-.3h.42c.21,0,.32.1.32.3v4C214.83,177.93,214.72,178,214.51,178Z"/><path class="cls-11" d="M215,189h-.42c-.21,0-.32-.1-.32-.3v-4c0-.2.11-.3.32-.3H215c.21,0,.31.1.31.3v4C215.35,188.93,215.25,189,215,189Z"/><path class="cls-11" d="M59.73,178h-.42c-.21,0-.32-.1-.32-.3v-4c0-.2.11-.3.32-.3h.42c.21,0,.31.1.31.3v4C60,177.93,59.94,178,59.73,178Z"/><path class="cls-11" d="M59.73,189h-.42c-.21,0-.32-.1-.32-.3v-4c0-.2.11-.3.32-.3h.42c.21,0,.31.1.31.3v4C60,188.93,59.94,189,59.73,189Z"/><path class="cls-11" d="M215.56,203.93l-.42.1c-.21,0-.31-.1-.42-.3l-.63-4c0-.2.11-.3.32-.4l.42-.1c.21,0,.31.1.42.3l.63,4C215.77,203.73,215.67,203.93,215.56,203.93Z"/><path class="cls-11" d="M59.2,204l-.41-.1c-.21,0-.32-.2-.32-.4l.63-4c0-.2.21-.3.42-.3l.42.1c.21,0,.31.2.31.4l-.63,4A.43.43,0,0,1,59.2,204Z"/><polygon class="cls-27" points="12.51 192.73 262.26 192.73 263.31 202.03 11.46 202.03 12.51 192.73"/><path class="cls-11" d="M215,199.73h-.42c-.21,0-.32-.1-.32-.3v-4c0-.2.11-.3.32-.3H215c.21,0,.31.1.31.3v4A.32.32,0,0,1,215,199.73Z"/><path class="cls-11" d="M59.73,199.73h-.42c-.21,0-.32-.1-.32-.3v-4c0-.2.11-.3.32-.3h.42c.21,0,.31.1.31.3v4A.32.32,0,0,1,59.73,199.73Z"/><path class="cls-11" d="M137.49,35.23h-.42c-.21,0-.32-.1-.32-.3v-4c0-.2.11-.3.32-.3h.42c.21,0,.31.1.31.3v4A.32.32,0,0,1,137.49,35.23Z"/><path class="cls-11" d="M137.49,46.23h-.42c-.21,0-.32-.1-.32-.3v-4c0-.2.11-.3.32-.3h.42c.21,0,.31.1.31.3v4A.32.32,0,0,1,137.49,46.23Z"/><path class="cls-11" d="M137.49,57.23h-.42c-.21,0-.32-.1-.32-.3v-4c0-.2.11-.3.32-.3h.42c.21,0,.31.1.31.3v4A.32.32,0,0,1,137.49,57.23Z"/><path class="cls-11" d="M137.49,68.23h-.42c-.21,0-.32-.1-.32-.3v-4c0-.2.11-.3.32-.3h.42c.21,0,.31.1.31.3v4A.32.32,0,0,1,137.49,68.23Z"/><path class="cls-11" d="M137.49,79.13h-.42c-.21,0-.32-.1-.32-.3v-4c0-.2.11-.3.32-.3h.42c.21,0,.31.1.31.3v4A.32.32,0,0,1,137.49,79.13Z"/><path class="cls-11" d="M137.49,90.13h-.42c-.21,0-.32-.1-.32-.3v-4c0-.2.11-.3.32-.3h.42c.21,0,.31.1.31.3v4A.32.32,0,0,1,137.49,90.13Z"/><path class="cls-11" d="M137.49,101.13h-.42c-.21,0-.32-.1-.32-.3v-4c0-.2.11-.3.32-.3h.42c.21,0,.31.1.31.3v4A.32.32,0,0,1,137.49,101.13Z"/><path class="cls-11" d="M137.49,112.13h-.42c-.21,0-.32-.1-.32-.3v-4c0-.2.11-.3.32-.3h.42c.21,0,.31.1.31.3v4A.32.32,0,0,1,137.49,112.13Z"/><path class="cls-11" d="M137.49,123.13h-.42c-.21,0-.32-.1-.32-.3v-4c0-.2.11-.3.32-.3h.42c.21,0,.31.1.31.3v4A.32.32,0,0,1,137.49,123.13Z"/><path class="cls-11" d="M137.49,134.13h-.42c-.21,0-.32-.1-.32-.3v-4c0-.2.11-.3.32-.3h.42c.21,0,.31.1.31.3v4C137.8,134,137.7,134.13,137.49,134.13Z"/><path class="cls-11" d="M137.49,145.13h-.42c-.21,0-.32-.1-.32-.3v-4c0-.2.11-.3.32-.3h.42c.21,0,.31.1.31.3v4A.32.32,0,0,1,137.49,145.13Z"/><path class="cls-11" d="M137.49,156h-.42c-.21,0-.32-.1-.32-.3v-4c0-.2.11-.3.32-.3h.42c.21,0,.31.1.31.3v4C137.8,155.93,137.7,156,137.49,156Z"/><path class="cls-11" d="M137.49,167h-.42c-.21,0-.32-.1-.32-.3v-4c0-.2.11-.3.32-.3h.42c.21,0,.31.1.31.3v4C137.8,166.93,137.7,167,137.49,167Z"/><path class="cls-11" d="M137.49,178h-.42c-.21,0-.32-.1-.32-.3v-4c0-.2.11-.3.32-.3h.42c.21,0,.31.1.31.3v4C137.8,177.93,137.7,178,137.49,178Z"/><path class="cls-11" d="M137.49,189h-.42c-.21,0-.32-.1-.32-.3v-4c0-.2.11-.3.32-.3h.42c.21,0,.31.1.31.3v4C137.8,188.93,137.7,189,137.49,189Z"/><path class="cls-11" d="M137.49,199.73h-.42c-.21,0-.32-.1-.32-.3v-4c0-.2.11-.3.32-.3h.42c.21,0,.31.1.31.3v4A.32.32,0,0,1,137.49,199.73Z"/><path class="cls-28" d="M59.52,28.23c0,10.8-.32,22,0,32.8s-.11,20.9-.21,31.5c-.11,11,.31,21.9.42,32.9,0,9.4.1,19-.11,28.4-.1,3.5-.21,6.9-.21,10.4v38.5c0,2.1.53,5.3.11,7.3s-1.89,2.8-2.31,4.8"/><path class="cls-28" d="M214.51,28.23c0,10.8.32,22,0,32.8s.11,20.9.21,31.5c.11,11-.31,21.9-.42,32.9,0,9.4-.1,19,.11,28.4.1,3.5.21,6.9.21,10.4v38.5c0,2.1-.53,5.3-.11,7.3s1.89,2.8,2.31,4.8"/><path class="cls-28" d="M137.91,28.23c0,10.8-.63,22-.74,32.8-.1,10.6,0,20.8.21,31.5.11,11-.31,22-.42,33,0,9.4.32,18.9.63,28.3.11,3.5-.63,6.9-.63,10.4,0,12.8.63,25.6,0,38.5a28.64,28.64,0,0,0,.42,7.3c.42,2-.42,2.6-.42,4.5"/><rect class="cls-29" x="9.67" y="220.93" width="255" height="8.6"/><path class="cls-28" d="M59.73,216a1.85,1.85,0,0,0-1.89-1.3,4.19,4.19,0,0,0-2.52.8c-.1.1-.21.2-.21.3s.21.3.42.3a7,7,0,0,0,3.78.2c.42-.1.73-.4,1.15-.5a5.31,5.31,0,0,1,2.52-.2,2.19,2.19,0,0,1,1.16.2c.31.1.63.5.52.8a9.2,9.2,0,0,1-4.72.7,23.93,23.93,0,0,1-4.62-1.1,9.29,9.29,0,0,0-2.41-.5,2.56,2.56,0,0,0-2.1.9.56.56,0,0,0-.11.4c.11.3.63.4.95.4,3.15.4,6.51.7,9.55-.2a5.77,5.77,0,0,1,1.26-.3,1.94,1.94,0,0,1,1.15.3.61.61,0,0,1-.21,1,2.75,2.75,0,0,1-1.26.5,7.58,7.58,0,0,1-3.35-.1c-1.47-.3-2.84-1.1-4.31-.8-.73.1-1.36.7-1,1.2a1,1,0,0,0,.63.4,4,4,0,0,0,2.84-.1,5.11,5.11,0,0,1,1.68-.8,2.52,2.52,0,0,1,2.09.4,1,1,0,0,1,.42.7c0,.4-.52.8-1.15.9a4.77,4.77,0,0,1-1.68-.1c-.73-.1-1.47-.3-2.2-.4-.53-.1-1.37-.1-1.47.3s.42.7.94.8a4.09,4.09,0,0,0,1.89.2c.63-.1,1.26-.5,1.26-.9"/><path class="cls-28" d="M214.3,216a1.86,1.86,0,0,1,1.89-1.3,4.16,4.16,0,0,1,2.52.8c.11.1.21.2.21.3s-.21.3-.42.3a7,7,0,0,1-3.78.2c-.42-.1-.73-.4-1.15-.5a5.31,5.31,0,0,0-2.52-.2,1.55,1.55,0,0,0-1.47.6c-1.05,1.4,10-.2,10.29-.3,1.25-.3,2.72-.4,2,1s-4.51,1.1-5.77.9c-1.89-.3-3.89-.8-5.67-.3a6.1,6.1,0,0,0,3.46,1.3c1.89-.1,3.57-1.4,5.46-1,.74.1,1.36.7,1,1.2-.1.2-.31.3-.63.4a3.93,3.93,0,0,1-2.83-.1,5.2,5.2,0,0,0-1.68-.8,2.53,2.53,0,0,0-2.1.4,1,1,0,0,0-.42.7c0,.4.52.8,1.15.9a4.75,4.75,0,0,0,1.68-.1c.74-.1,1.47-.3,2.21-.4.52-.1,1.36-.1,1.47.3s-.42.7-1,.8a4.09,4.09,0,0,1-1.89.2c-.63-.1-1.26-.5-1.26-.9"/><path class="cls-28" d="M136.86,214.33c-.11,1.8-2-.2-3.15-.1a.67.67,0,0,0-.42.1.65.65,0,0,0-.1,1,1.25,1.25,0,0,0,1.05.4c1.78.1,3.56-1.1,5.45-.7.53.1,1.05.4,1.05.9s-.73.8-1.36.9a7.6,7.6,0,0,1-2.1.1,16.53,16.53,0,0,1-3.15-1.1c-1-.3-2.52-.2-3,.7a1.76,1.76,0,0,0,.42,2.2,3.25,3.25,0,0,0,2.31.8,5.17,5.17,0,0,0,2.41-.7,14.58,14.58,0,0,1,2.94-1.1,4.86,4.86,0,0,1,2.41.3c.42.2.84.4.84.9a.86.86,0,0,1-.73.8,2.21,2.21,0,0,1-1.16-.1c-1.68-.5-3.36-1.2-4.93-1.8a11.93,11.93,0,0,0-2.73-.6,6.23,6.23,0,0,0-1.36-.1c-.42,0-.95-.1-1.16.3a2.05,2.05,0,0,0,.32,2.4,3.33,3.33,0,0,0,2.52,1,9.87,9.87,0,0,0,2.93-.9,10.22,10.22,0,0,1,2.94-1,6,6,0,0,1,1.89.1,2.69,2.69,0,0,1,1.47.6,1.07,1.07,0,0,1,.32,1.4c-.32.5-1.16.5-1.79.4a16.29,16.29,0,0,1-2.94-.8,8,8,0,0,0-2.2-.7,2,2,0,0,0-2,.8"/><polygon class="cls-30" points="23.41 176.23 23.41 29.44 28.57 29.44 28.57 176.23 26.05 177.34 23.41 176.23"/><path class="cls-11" d="M27.84,30V176l-1.8.85L24,176V30.12h3.8m1.36-1.19H22.67V176.48l.74.34,2,.86.63.25.64-.25,1.79-.86.63-.34V28.93Z"/><rect class="cls-29" x="9.67" y="8.63" width="255" height="22.7"/></g></svg>